<?xml version="1.0" encoding="UTF-8"?>
<svg xmlns="http://www.w3.org/2000/svg" width="1600" height="900" viewBox="0 0 1600 900">
<defs><linearGradient id="ramp" x1="0" y1="0" x2="0" y2="1"><stop offset="0" stop-color="#1a1038"/><stop offset="0.58" stop-color="#361d5d"/><stop offset="1" stop-color="#5c2e91"/></linearGradient><linearGradient id="wash" x1="1" y1="0" x2="0" y2="1"><stop offset="0" stop-color="#56d6e2" stop-opacity="0.22"/><stop offset="0.55" stop-color="#56d6e2" stop-opacity="0.05"/><stop offset="1" stop-color="#56d6e2" stop-opacity="0"/></linearGradient><radialGradient id="a0" cx="0.5" cy="0.5" r="0.5"><stop offset="0" stop-color="#c1b0d5" stop-opacity="0.23"/><stop offset="0.45" stop-color="#c1b0d5" stop-opacity="0.1"/><stop offset="1" stop-color="#c1b0d5" stop-opacity="0"/></radialGradient><radialGradient id="a1" cx="0.5" cy="0.5" r="0.5"><stop offset="0" stop-color="#56d6e2" stop-opacity="0.12"/><stop offset="0.45" stop-color="#56d6e2" stop-opacity="0.05"/><stop offset="1" stop-color="#56d6e2" stop-opacity="0"/></radialGradient><radialGradient id="a2" cx="0.5" cy="0.5" r="0.5"><stop offset="0" stop-color="#56d6e2" stop-opacity="0.09"/><stop offset="0.45" stop-color="#56d6e2" stop-opacity="0.04"/><stop offset="1" stop-color="#56d6e2" stop-opacity="0"/></radialGradient><clipPath id="frame"><rect width="1600" height="900"/></clipPath><linearGradient id="scrim" x1="0" y1="0" x2="0" y2="1"><stop offset="0.06" stop-color="#000" stop-opacity="0"/><stop offset="0.22" stop-color="#000" stop-opacity="0.20"/><stop offset="0.78" stop-color="#000" stop-opacity="0.20"/><stop offset="0.96" stop-color="#000" stop-opacity="0"/></linearGradient><radialGradient id="vignette" cx="0.5" cy="0.5" r="0.72"><stop offset="0.4" stop-color="#000" stop-opacity="0"/><stop offset="1" stop-color="#000" stop-opacity="0.28"/></radialGradient></defs>
<rect width="1600" height="900" fill="url(#ramp)"/><rect width="1600" height="900" fill="url(#wash)"/><ellipse cx="-120.8" cy="-89.23" rx="472.7" ry="410.95" transform="rotate(-24.98 -120.8 -89.23)" fill="url(#a0)"/><ellipse cx="531.38" cy="327.96" rx="520.86" ry="409.83" transform="rotate(0.9 531.38 327.96)" fill="url(#a1)"/><ellipse cx="425.23" cy="480.29" rx="578.24" ry="466.3" transform="rotate(-32.95 425.23 480.29)" fill="url(#a2)"/><g clip-path="url(#frame)"><path d="M 564.18 699.13 Q 449.05 765.29 448.54 716.83" fill="none" stroke="#c1b0d5" stroke-opacity="0.15" stroke-width="4.11"/><path d="M 153.09 201.44 Q 239.73 197.87 304.9 215.76" fill="none" stroke="#c1b0d5" stroke-opacity="0.15" stroke-width="4.18"/><path d="M 1294.13 627.51 Q 1256.71 575.85 1195.99 547.48" fill="none" stroke="#c1b0d5" stroke-opacity="0.17" stroke-width="3.73"/><path d="M 1463.29 678.36 Q 1507.67 614.47 1405.17 697.46" fill="none" stroke="#c1b0d5" stroke-opacity="0.13" stroke-width="3.49"/><path d="M 1463.29 678.36 Q 1418.49 702.24 1401.09 698.73" fill="none" stroke="#c1b0d5" stroke-opacity="0.12" stroke-width="4.09"/><path d="M 1401.09 698.73 Q 1380.93 720.29 1405.17 697.46" fill="none" stroke="#c1b0d5" stroke-opacity="0.17" stroke-width="4.42"/><path d="M 1401.09 698.73 Q 1403.77 716.96 1463.29 678.36" fill="none" stroke="#c1b0d5" stroke-opacity="0.12" stroke-width="3.78"/><path d="M 1401.09 698.73 Q 1365.95 644.77 1294.13 627.51" fill="none" stroke="#c1b0d5" stroke-opacity="0.14" stroke-width="3.96"/><path d="M 448.54 716.83 Q 548.95 665.39 564.18 699.13" fill="none" stroke="#c1b0d5" stroke-opacity="0.11" stroke-width="4.32"/><path d="M 448.54 716.83 Q 588.1 698.48 591.58 816.21" fill="none" stroke="#c1b0d5" stroke-opacity="0.23" stroke-width="3.75"/><path d="M 448.54 716.83 Q 445.63 636.32 459.51 539.02" fill="none" stroke="#c1b0d5" stroke-opacity="0.15" stroke-width="4.23"/><path d="M 204.39 441.47 Q 209.34 377.18 168.47 358.72" fill="none" stroke="#c1b0d5" stroke-opacity="0.13" stroke-width="2.47"/><path d="M 204.39 441.47 Q 330.64 357.1 328.52 401.1" fill="none" stroke="#c1b0d5" stroke-opacity="0.15" stroke-width="2.17"/><path d="M 835.97 306.16 Q 808.8 330.07 847.76 287.84" fill="none" stroke="#c1b0d5" stroke-opacity="0.12" stroke-width="3.63"/><path d="M 835.97 306.16 Q 834.09 376.53 877.84 401.26" fill="none" stroke="#c1b0d5" stroke-opacity="0.15" stroke-width="2.59"/><path d="M 317.85 551.98 Q 413 521.18 459.51 539.02" fill="none" stroke="#c1b0d5" stroke-opacity="0.17" stroke-width="4.02"/><path d="M 317.85 551.98 Q 299.18 539.3 387.4 419.72" fill="none" stroke="#c1b0d5" stroke-opacity="0.17" stroke-width="3.82"/><path d="M 586.51 552.86 Q 451.9 617.05 459.51 539.02" fill="none" stroke="#c1b0d5" stroke-opacity="0.17" stroke-width="2.79"/><path d="M 586.51 552.86 Q 537.67 663.67 564.18 699.13" fill="none" stroke="#c1b0d5" stroke-opacity="0.1" stroke-width="2.82"/><path d="M 586.51 552.86 Q 582.29 570.08 448.54 716.83" fill="none" stroke="#c1b0d5" stroke-opacity="0.14" stroke-width="4.14"/><path d="M 974.15 496.63 Q 847.52 527.41 877.84 401.26" fill="none" stroke="#c1b0d5" stroke-opacity="0.12" stroke-width="2.54"/><path d="M 974.15 496.63 Q 1024.99 582.13 1195.99 547.48" fill="none" stroke="#c1b0d5" stroke-opacity="0.16" stroke-width="2.09"/><path d="M 600.33 825.09 Q 607.89 808.72 591.58 816.21" fill="none" stroke="#c1b0d5" stroke-opacity="0.24" stroke-width="3.01"/><path d="M 1405.2 240.95 Q 1372.48 189.05 1186.84 290.06" fill="none" stroke="#c1b0d5" stroke-opacity="0.13" stroke-width="3.87"/><path d="M 1405.2 240.95 Q 1302.43 392.38 1195.99 547.48" fill="none" stroke="#c1b0d5" stroke-opacity="0.12" stroke-width="2.45"/><path d="M 877.84 401.26 Q 912.48 298.14 835.97 306.16" fill="none" stroke="#c1b0d5" stroke-opacity="0.11" stroke-width="3.18"/><path d="M 877.84 401.26 Q 867.06 340.29 847.76 287.84" fill="none" stroke="#c1b0d5" stroke-opacity="0.13" stroke-width="2.51"/><path d="M 877.84 401.26 Q 946.42 428.51 974.15 496.63" fill="none" stroke="#c1b0d5" stroke-opacity="0.15" stroke-width="3.91"/><path d="M 387.4 419.72 Q 319.21 449.16 328.52 401.1" fill="none" stroke="#c1b0d5" stroke-opacity="0.15" stroke-width="3.08"/><path d="M 387.4 419.72 Q 488.66 414.16 459.51 539.02" fill="none" stroke="#c1b0d5" stroke-opacity="0.11" stroke-width="4.08"/><path d="M 387.4 419.72 Q 316.4 522.08 317.85 551.98" fill="none" stroke="#c1b0d5" stroke-opacity="0.1" stroke-width="2.65"/><path d="M 328.52 401.1 Q 327.89 440.48 387.4 419.72" fill="none" stroke="#c1b0d5" stroke-opacity="0.17" stroke-width="3.75"/><path d="M 328.52 401.1 Q 302.75 384.99 204.39 441.47" fill="none" stroke="#c1b0d5" stroke-opacity="0.12" stroke-width="4.02"/><path d="M 591.58 816.21 Q 609.31 807.29 600.33 825.09" fill="none" stroke="#c1b0d5" stroke-opacity="0.34" stroke-width="3.45"/><path d="M 591.58 816.21 Q 604.9 730.65 564.18 699.13" fill="none" stroke="#c1b0d5" stroke-opacity="0.28" stroke-width="2.16"/><path d="M 591.58 816.21 Q 585.56 701.01 448.54 716.83" fill="none" stroke="#c1b0d5" stroke-opacity="0.25" stroke-width="2.9"/><path d="M 1186.84 290.06 Q 1351.7 209.82 1405.2 240.95" fill="none" stroke="#c1b0d5" stroke-opacity="0.13" stroke-width="2.08"/><path d="M 1186.84 290.06 Q 1148.12 462.06 1195.99 547.48" fill="none" stroke="#c1b0d5" stroke-opacity="0.16" stroke-width="3.3"/><path d="M 168.47 358.72 Q 167.31 419.21 204.39 441.47" fill="none" stroke="#c1b0d5" stroke-opacity="0.17" stroke-width="2.25"/><path d="M 216.02 753.16 Q 225.71 733.66 250.36 699.21" fill="none" stroke="#c1b0d5" stroke-opacity="0.2" stroke-width="4.34"/><path d="M 459.51 539.02 Q 564.56 504.39 586.51 552.86" fill="none" stroke="#c1b0d5" stroke-opacity="0.13" stroke-width="4.08"/><path d="M 250.36 699.21 Q 182.8 776.57 216.02 753.16" fill="none" stroke="#c1b0d5" stroke-opacity="0.15" stroke-width="3.12"/><path d="M 1405.17 697.46 Q 1358.99 742.23 1401.09 698.73" fill="none" stroke="#c1b0d5" stroke-opacity="0.14" stroke-width="4.14"/><path d="M 847.76 287.84 Q 810.14 328.73 835.97 306.16" fill="none" stroke="#c1b0d5" stroke-opacity="0.12" stroke-width="3.47"/><path d="M 847.76 287.84 Q 816.14 391.21 877.84 401.26" fill="none" stroke="#c1b0d5" stroke-opacity="0.15" stroke-width="3.45"/><path d="M 1195.99 547.48 Q 1233.43 599.12 1294.13 627.51" fill="none" stroke="#c1b0d5" stroke-opacity="0.17" stroke-width="2.88"/><path d="M 1195.99 547.48 Q 1017.08 590.04 974.15 496.63" fill="none" stroke="#c1b0d5" stroke-opacity="0.12" stroke-width="2.63"/><path d="M 304.9 215.76 Q 244.35 193.25 153.09 201.44" fill="none" stroke="#c1b0d5" stroke-opacity="0.16" stroke-width="3.54"/><path d="M 304.9 215.76 Q 375.51 249.63 328.52 401.1" fill="none" stroke="#c1b0d5" stroke-opacity="0.13" stroke-width="2.07"/><path d="M 304.9 215.76 Q 226.86 297.07 168.47 358.72" fill="none" stroke="#c1b0d5" stroke-opacity="0.13" stroke-width="2.46"/><circle cx="564.18" cy="699.13" r="71.15" fill="#56d6e2" fill-opacity="0.07"/><circle cx="564.18" cy="699.13" r="29.65" fill="#56d6e2" fill-opacity="0.27"/><circle cx="564.18" cy="699.13" r="29.65" fill="none" stroke="#a2e8ef" stroke-opacity="0.23" stroke-width="1.6"/><circle cx="153.09" cy="201.44" r="66.45" fill="#56d6e2" fill-opacity="0.07"/><circle cx="153.09" cy="201.44" r="27.69" fill="#56d6e2" fill-opacity="0.27"/><circle cx="153.09" cy="201.44" r="27.69" fill="none" stroke="#a2e8ef" stroke-opacity="0.23" stroke-width="1.6"/><circle cx="1294.13" cy="627.51" r="66.25" fill="#56d6e2" fill-opacity="0.07"/><circle cx="1294.13" cy="627.51" r="27.6" fill="#56d6e2" fill-opacity="0.27"/><circle cx="1294.13" cy="627.51" r="27.6" fill="none" stroke="#a2e8ef" stroke-opacity="0.23" stroke-width="1.6"/><circle cx="1463.29" cy="678.36" r="97.12" fill="#56d6e2" fill-opacity="0.07"/><circle cx="1463.29" cy="678.36" r="40.47" fill="#56d6e2" fill-opacity="0.27"/><circle cx="1463.29" cy="678.36" r="40.47" fill="none" stroke="#a2e8ef" stroke-opacity="0.23" stroke-width="1.6"/><circle cx="1401.09" cy="698.73" r="59.23" fill="#56d6e2" fill-opacity="0.07"/><circle cx="1401.09" cy="698.73" r="24.68" fill="#56d6e2" fill-opacity="0.27"/><circle cx="1401.09" cy="698.73" r="24.68" fill="none" stroke="#a2e8ef" stroke-opacity="0.23" stroke-width="1.6"/><circle cx="448.54" cy="716.83" r="56.64" fill="#56d6e2" fill-opacity="0.09"/><circle cx="448.54" cy="716.83" r="23.6" fill="#56d6e2" fill-opacity="0.32"/><circle cx="448.54" cy="716.83" r="23.6" fill="none" stroke="#a2e8ef" stroke-opacity="0.28" stroke-width="1.6"/><circle cx="204.39" cy="441.47" r="65.71" fill="#56d6e2" fill-opacity="0.07"/><circle cx="204.39" cy="441.47" r="27.38" fill="#56d6e2" fill-opacity="0.27"/><circle cx="204.39" cy="441.47" r="27.38" fill="none" stroke="#a2e8ef" stroke-opacity="0.23" stroke-width="1.6"/><circle cx="835.97" cy="306.16" r="38.62" fill="#56d6e2" fill-opacity="0.07"/><circle cx="835.97" cy="306.16" r="16.09" fill="#56d6e2" fill-opacity="0.27"/><circle cx="835.97" cy="306.16" r="16.09" fill="none" stroke="#a2e8ef" stroke-opacity="0.23" stroke-width="1.6"/><circle cx="317.85" cy="551.98" r="84.7" fill="#56d6e2" fill-opacity="0.07"/><circle cx="317.85" cy="551.98" r="35.29" fill="#56d6e2" fill-opacity="0.27"/><circle cx="317.85" cy="551.98" r="35.29" fill="none" stroke="#a2e8ef" stroke-opacity="0.23" stroke-width="1.6"/><circle cx="586.51" cy="552.86" r="81.4" fill="#56d6e2" fill-opacity="0.07"/><circle cx="586.51" cy="552.86" r="33.92" fill="#56d6e2" fill-opacity="0.27"/><circle cx="586.51" cy="552.86" r="33.92" fill="none" stroke="#a2e8ef" stroke-opacity="0.23" stroke-width="1.6"/><circle cx="974.15" cy="496.63" r="90.6" fill="#56d6e2" fill-opacity="0.07"/><circle cx="974.15" cy="496.63" r="37.75" fill="#56d6e2" fill-opacity="0.27"/><circle cx="974.15" cy="496.63" r="37.75" fill="none" stroke="#a2e8ef" stroke-opacity="0.23" stroke-width="1.6"/><circle cx="600.33" cy="825.09" r="46.74" fill="#56d6e2" fill-opacity="0.16"/><circle cx="600.33" cy="825.09" r="19.47" fill="#56d6e2" fill-opacity="0.6"/><circle cx="600.33" cy="825.09" r="19.47" fill="none" stroke="#a2e8ef" stroke-opacity="0.52" stroke-width="1.6"/><circle cx="1405.2" cy="240.95" r="79.68" fill="#56d6e2" fill-opacity="0.07"/><circle cx="1405.2" cy="240.95" r="33.2" fill="#56d6e2" fill-opacity="0.27"/><circle cx="1405.2" cy="240.95" r="33.2" fill="none" stroke="#a2e8ef" stroke-opacity="0.23" stroke-width="1.6"/><circle cx="877.84" cy="401.26" r="69.12" fill="#56d6e2" fill-opacity="0.07"/><circle cx="877.84" cy="401.26" r="28.8" fill="#56d6e2" fill-opacity="0.27"/><circle cx="877.84" cy="401.26" r="28.8" fill="none" stroke="#a2e8ef" stroke-opacity="0.23" stroke-width="1.6"/><circle cx="387.4" cy="419.72" r="48.91" fill="#56d6e2" fill-opacity="0.07"/><circle cx="387.4" cy="419.72" r="20.38" fill="#56d6e2" fill-opacity="0.27"/><circle cx="387.4" cy="419.72" r="20.38" fill="none" stroke="#a2e8ef" stroke-opacity="0.23" stroke-width="1.6"/><circle cx="328.52" cy="401.1" r="41.76" fill="#56d6e2" fill-opacity="0.07"/><circle cx="328.52" cy="401.1" r="17.4" fill="#56d6e2" fill-opacity="0.27"/><circle cx="328.52" cy="401.1" r="17.4" fill="none" stroke="#a2e8ef" stroke-opacity="0.23" stroke-width="1.6"/><circle cx="591.58" cy="816.21" r="97.48" fill="#56d6e2" fill-opacity="0.16"/><circle cx="591.58" cy="816.21" r="40.62" fill="#56d6e2" fill-opacity="0.6"/><circle cx="591.58" cy="816.21" r="40.62" fill="none" stroke="#a2e8ef" stroke-opacity="0.52" stroke-width="1.6"/><circle cx="1186.84" cy="290.06" r="99.22" fill="#56d6e2" fill-opacity="0.07"/><circle cx="1186.84" cy="290.06" r="41.34" fill="#56d6e2" fill-opacity="0.27"/><circle cx="1186.84" cy="290.06" r="41.34" fill="none" stroke="#a2e8ef" stroke-opacity="0.23" stroke-width="1.6"/><circle cx="168.47" cy="358.72" r="52.15" fill="#56d6e2" fill-opacity="0.07"/><circle cx="168.47" cy="358.72" r="21.73" fill="#56d6e2" fill-opacity="0.27"/><circle cx="168.47" cy="358.72" r="21.73" fill="none" stroke="#a2e8ef" stroke-opacity="0.23" stroke-width="1.6"/><circle cx="216.02" cy="753.16" r="40.26" fill="#56d6e2" fill-opacity="0.12"/><circle cx="216.02" cy="753.16" r="16.78" fill="#56d6e2" fill-opacity="0.46"/><circle cx="216.02" cy="753.16" r="16.78" fill="none" stroke="#a2e8ef" stroke-opacity="0.4" stroke-width="1.6"/><circle cx="459.51" cy="539.02" r="71.39" fill="#56d6e2" fill-opacity="0.07"/><circle cx="459.51" cy="539.02" r="29.75" fill="#56d6e2" fill-opacity="0.27"/><circle cx="459.51" cy="539.02" r="29.75" fill="none" stroke="#a2e8ef" stroke-opacity="0.23" stroke-width="1.6"/><circle cx="250.36" cy="699.21" r="78.7" fill="#56d6e2" fill-opacity="0.07"/><circle cx="250.36" cy="699.21" r="32.79" fill="#56d6e2" fill-opacity="0.27"/><circle cx="250.36" cy="699.21" r="32.79" fill="none" stroke="#a2e8ef" stroke-opacity="0.23" stroke-width="1.6"/><circle cx="1405.17" cy="697.46" r="87.49" fill="#56d6e2" fill-opacity="0.07"/><circle cx="1405.17" cy="697.46" r="36.46" fill="#56d6e2" fill-opacity="0.27"/><circle cx="1405.17" cy="697.46" r="36.46" fill="none" stroke="#a2e8ef" stroke-opacity="0.23" stroke-width="1.6"/><circle cx="847.76" cy="287.84" r="75.9" fill="#56d6e2" fill-opacity="0.07"/><circle cx="847.76" cy="287.84" r="31.63" fill="#56d6e2" fill-opacity="0.27"/><circle cx="847.76" cy="287.84" r="31.63" fill="none" stroke="#a2e8ef" stroke-opacity="0.23" stroke-width="1.6"/><circle cx="1195.99" cy="547.48" r="78.66" fill="#56d6e2" fill-opacity="0.07"/><circle cx="1195.99" cy="547.48" r="32.78" fill="#56d6e2" fill-opacity="0.27"/><circle cx="1195.99" cy="547.48" r="32.78" fill="none" stroke="#a2e8ef" stroke-opacity="0.23" stroke-width="1.6"/><circle cx="304.9" cy="215.76" r="42.48" fill="#56d6e2" fill-opacity="0.07"/><circle cx="304.9" cy="215.76" r="17.7" fill="#56d6e2" fill-opacity="0.27"/><circle cx="304.9" cy="215.76" r="17.7" fill="none" stroke="#a2e8ef" stroke-opacity="0.23" stroke-width="1.6"/></g><circle cx="49.42" cy="293.82" r="4.55" fill="#c1b0d5" fill-opacity="0.14"/><circle cx="275.22" cy="536" r="4.61" fill="#c1b0d5" fill-opacity="0.08"/><circle cx="724.96" cy="174.09" r="4.31" fill="#c1b0d5" fill-opacity="0.15"/><circle cx="1498.67" cy="79.18" r="4.61" fill="#c1b0d5" fill-opacity="0.28"/><circle cx="871.77" cy="751.26" r="3.09" fill="#c1b0d5" fill-opacity="0.16"/><circle cx="1099.79" cy="699.4" r="2.26" fill="#c1b0d5" fill-opacity="0.08"/><circle cx="717.11" cy="71.03" r="3.47" fill="#c1b0d5" fill-opacity="0.22"/><circle cx="1406.11" cy="499.89" r="4.15" fill="#c1b0d5" fill-opacity="0.08"/><circle cx="602.45" cy="822.5" r="2.65" fill="#c1b0d5" fill-opacity="0.18"/><circle cx="183.71" cy="365.36" r="4.46" fill="#c1b0d5" fill-opacity="0.11"/><circle cx="569.54" cy="8.13" r="3.51" fill="#c1b0d5" fill-opacity="0.3"/><circle cx="456.2" cy="554.12" r="4.17" fill="#c1b0d5" fill-opacity="0.14"/><circle cx="1414.41" cy="805.68" r="3.65" fill="#c1b0d5" fill-opacity="0.19"/><circle cx="294.25" cy="466" r="2.98" fill="#c1b0d5" fill-opacity="0.11"/><circle cx="135.78" cy="87.66" r="2.7" fill="#c1b0d5" fill-opacity="0.23"/><circle cx="369.13" cy="335.02" r="4.54" fill="#c1b0d5" fill-opacity="0.1"/><circle cx="334.71" cy="235.72" r="2.76" fill="#c1b0d5" fill-opacity="0.15"/><circle cx="420.36" cy="898.24" r="3.12" fill="#c1b0d5" fill-opacity="0.27"/><circle cx="1586.42" cy="504.04" r="3.03" fill="#c1b0d5" fill-opacity="0.07"/><circle cx="695.78" cy="210.05" r="5.07" fill="#c1b0d5" fill-opacity="0.12"/><rect width="1600" height="900" fill="url(#scrim)"/><rect width="1600" height="900" fill="url(#vignette)"/>
</svg>
